<svg xmlns="http://www.w3.org/2000/svg"  viewBox="0 0 72 72" width="256px" height="256px"><path d="M59.601,24.852c-0.22,4.722-3.586,11.187-10.096,19.394c-6.73,8.571-12.425,12.858-17.083,12.858	c-2.886,0-5.329-2.611-7.321-7.831c-1.332-4.784-2.663-9.571-3.995-14.358c-1.48-5.217-3.069-7.831-4.769-7.831	c-0.371,0-1.666,0.765-3.883,2.284l-2.329-2.938c2.445-2.104,4.854-4.205,7.225-6.311c3.26-2.76,5.705-4.21,7.334-4.356	c3.854-0.364,6.225,2.218,7.113,7.742c0.96,5.96,1.629,9.667,2,11.118c1.109,4.945,2.334,7.413,3.668,7.413	c1.035,0,2.594-1.604,4.668-4.811c2.074-3.208,3.183-5.648,3.334-7.324c0.295-2.767-0.814-4.156-3.334-4.156	c-1.186,0-2.408,0.267-3.663,0.794c2.433-7.809,7.081-11.6,13.942-11.385C57.497,15.301,59.895,18.533,59.601,24.852z"/></svg>